# xmcd
#
# Track frame offsets: 
#        150
#        20737
#        37002
#        54092
#        72789
#        99477
#        119635
#        135158
#        154505
#        173347
#        189483
#        206749
#        219574
#        246961
#        269214
#        286026
#        306511
#
# Disc length: 4354 seconds
#
# Revision: 0
# Processed by: cddbd v1.5.1PL2 Copyright (c) Steve Scherf et al.
# Submitted via: ExactAudioCopy v0.95b3
#
DISCID=f6110011
DTITLE=RJD2 - Gettin' Jukie Wid It
DYEAR=2004
DGENRE=Hip-Hop
TTITLE0=RJD2 - I Really Like Your Def Jux Baby Tee
TTITLE1=Diverse - Certified
TTITLE2=Souls Of Mischief - Spark (RJD2 Remix)
TTITLE3=Soul Position - Mic Control
TTITLE4=RJD2 - Here's What's Left
TTITLE5=Copywrite - 7 Light Years
TTITLE6=Eyedea - Warped Wax
TTITLE7=Coptwrite - Fucksoundcheck
TTITLE8=RJD2 - Final Frontier Remix (feat. Blueprint, Aesop Rock, Vast
TTITLE8=Aire, and Murs)
TTITLE9=MHZ - Rocket Science
TTITLE10=Cage - Among The Sleep
TTITLE11=Murs - Sore Losers
TTITLE12=RJD2 - June (feat. Copywrite)
TTITLE13=Cannibal Ox - The F-Word (RJD2 Remix)
TTITLE14=RJD2 - Cut Out To FL
TTITLE15=RJD2 - F.H.H. (feat. Jakki Tha Motamouth)
TTITLE16=RJD2 - Smoke and Mirrors
EXTD=
EXTT0=
EXTT1=
EXTT2=
EXTT3=
EXTT4=
EXTT5=
EXTT6=
EXTT7=
EXTT8=
EXTT9=
EXTT10=
EXTT11=
EXTT12=
EXTT13=
EXTT14=
EXTT15=
EXTT16=
PLAYORDER=
